<mxfile host="app.diagrams.net" modified="2023-10-24T10:40:33.677Z" agent="Mozilla/5.0 (X11; Linux x86_64) AppleWebKit/537.36 (KHTML, like Gecko) Chrome/117.0.0.0 Safari/537.36 Edg/117.0.2045.55" etag="juTrAv3pI4E9DsWwufGB" version="22.0.6" type="github">
  <diagram id="C5RBs43oDa-KdzZeNtuy" name="Page-1">
    <mxGraphModel dx="1346" dy="775" grid="1" gridSize="10" guides="1" tooltips="1" connect="1" arrows="1" fold="1" page="1" pageScale="1" pageWidth="827" pageHeight="1169" math="0" shadow="0">
      <root>
        <mxCell id="WIyWlLk6GJQsqaUBKTNV-0" />
        <mxCell id="WIyWlLk6GJQsqaUBKTNV-1" parent="WIyWlLk6GJQsqaUBKTNV-0" />
        <mxCell id="FH31mO6eBLQgAafDQbDE-0" value="&lt;font style=&quot;font-size: 24px;&quot;&gt;A&lt;/font&gt;" style="ellipse;whiteSpace=wrap;html=1;" vertex="1" parent="WIyWlLk6GJQsqaUBKTNV-1">
          <mxGeometry x="300" y="100" width="80" height="60" as="geometry" />
        </mxCell>
        <mxCell id="FH31mO6eBLQgAafDQbDE-1" value="&lt;font style=&quot;font-size: 24px;&quot;&gt;F&lt;/font&gt;" style="ellipse;whiteSpace=wrap;html=1;" vertex="1" parent="WIyWlLk6GJQsqaUBKTNV-1">
          <mxGeometry x="150" y="700" width="80" height="60" as="geometry" />
        </mxCell>
        <mxCell id="FH31mO6eBLQgAafDQbDE-2" value="&lt;font style=&quot;font-size: 24px;&quot;&gt;H&lt;/font&gt;" style="ellipse;whiteSpace=wrap;html=1;" vertex="1" parent="WIyWlLk6GJQsqaUBKTNV-1">
          <mxGeometry x="370" y="700" width="80" height="60" as="geometry" />
        </mxCell>
        <mxCell id="FH31mO6eBLQgAafDQbDE-15" value="" style="edgeStyle=none;rounded=0;orthogonalLoop=1;jettySize=auto;html=1;" edge="1" parent="WIyWlLk6GJQsqaUBKTNV-1" source="FH31mO6eBLQgAafDQbDE-4" target="FH31mO6eBLQgAafDQbDE-2">
          <mxGeometry relative="1" as="geometry" />
        </mxCell>
        <mxCell id="FH31mO6eBLQgAafDQbDE-4" value="&lt;font style=&quot;font-size: 24px;&quot;&gt;J&lt;/font&gt;" style="ellipse;whiteSpace=wrap;html=1;" vertex="1" parent="WIyWlLk6GJQsqaUBKTNV-1">
          <mxGeometry x="370" y="580" width="80" height="60" as="geometry" />
        </mxCell>
        <mxCell id="FH31mO6eBLQgAafDQbDE-19" style="edgeStyle=none;rounded=0;orthogonalLoop=1;jettySize=auto;html=1;exitX=0;exitY=1;exitDx=0;exitDy=0;entryX=1;entryY=0;entryDx=0;entryDy=0;" edge="1" parent="WIyWlLk6GJQsqaUBKTNV-1" source="FH31mO6eBLQgAafDQbDE-5" target="FH31mO6eBLQgAafDQbDE-1">
          <mxGeometry relative="1" as="geometry" />
        </mxCell>
        <mxCell id="FH31mO6eBLQgAafDQbDE-20" style="edgeStyle=none;rounded=0;orthogonalLoop=1;jettySize=auto;html=1;exitX=1;exitY=1;exitDx=0;exitDy=0;entryX=0;entryY=0;entryDx=0;entryDy=0;" edge="1" parent="WIyWlLk6GJQsqaUBKTNV-1" source="FH31mO6eBLQgAafDQbDE-5" target="FH31mO6eBLQgAafDQbDE-2">
          <mxGeometry relative="1" as="geometry" />
        </mxCell>
        <mxCell id="FH31mO6eBLQgAafDQbDE-5" value="&lt;font style=&quot;font-size: 24px;&quot;&gt;E&lt;/font&gt;" style="ellipse;whiteSpace=wrap;html=1;" vertex="1" parent="WIyWlLk6GJQsqaUBKTNV-1">
          <mxGeometry x="240" y="580" width="80" height="60" as="geometry" />
        </mxCell>
        <mxCell id="FH31mO6eBLQgAafDQbDE-14" value="" style="edgeStyle=none;rounded=0;orthogonalLoop=1;jettySize=auto;html=1;" edge="1" parent="WIyWlLk6GJQsqaUBKTNV-1" source="FH31mO6eBLQgAafDQbDE-6" target="FH31mO6eBLQgAafDQbDE-4">
          <mxGeometry relative="1" as="geometry" />
        </mxCell>
        <mxCell id="FH31mO6eBLQgAafDQbDE-6" value="&lt;font style=&quot;font-size: 24px;&quot;&gt;I&lt;/font&gt;" style="ellipse;whiteSpace=wrap;html=1;" vertex="1" parent="WIyWlLk6GJQsqaUBKTNV-1">
          <mxGeometry x="370" y="450" width="80" height="60" as="geometry" />
        </mxCell>
        <mxCell id="FH31mO6eBLQgAafDQbDE-17" value="" style="edgeStyle=none;rounded=0;orthogonalLoop=1;jettySize=auto;html=1;" edge="1" parent="WIyWlLk6GJQsqaUBKTNV-1" source="FH31mO6eBLQgAafDQbDE-7" target="FH31mO6eBLQgAafDQbDE-5">
          <mxGeometry relative="1" as="geometry" />
        </mxCell>
        <mxCell id="FH31mO6eBLQgAafDQbDE-7" value="&lt;span style=&quot;font-size: 24px;&quot;&gt;D&lt;/span&gt;" style="ellipse;whiteSpace=wrap;html=1;" vertex="1" parent="WIyWlLk6GJQsqaUBKTNV-1">
          <mxGeometry x="240" y="450" width="80" height="60" as="geometry" />
        </mxCell>
        <mxCell id="FH31mO6eBLQgAafDQbDE-13" value="" style="edgeStyle=none;rounded=0;orthogonalLoop=1;jettySize=auto;html=1;" edge="1" parent="WIyWlLk6GJQsqaUBKTNV-1" source="FH31mO6eBLQgAafDQbDE-8" target="FH31mO6eBLQgAafDQbDE-6">
          <mxGeometry relative="1" as="geometry" />
        </mxCell>
        <mxCell id="FH31mO6eBLQgAafDQbDE-16" style="edgeStyle=none;rounded=0;orthogonalLoop=1;jettySize=auto;html=1;exitX=0;exitY=1;exitDx=0;exitDy=0;entryX=1;entryY=0;entryDx=0;entryDy=0;" edge="1" parent="WIyWlLk6GJQsqaUBKTNV-1" source="FH31mO6eBLQgAafDQbDE-8" target="FH31mO6eBLQgAafDQbDE-7">
          <mxGeometry relative="1" as="geometry" />
        </mxCell>
        <mxCell id="FH31mO6eBLQgAafDQbDE-8" value="&lt;font style=&quot;font-size: 24px;&quot;&gt;C&lt;/font&gt;" style="ellipse;whiteSpace=wrap;html=1;" vertex="1" parent="WIyWlLk6GJQsqaUBKTNV-1">
          <mxGeometry x="370" y="340" width="80" height="60" as="geometry" />
        </mxCell>
        <mxCell id="FH31mO6eBLQgAafDQbDE-12" value="" style="edgeStyle=none;rounded=0;orthogonalLoop=1;jettySize=auto;html=1;strokeWidth=1;" edge="1" parent="WIyWlLk6GJQsqaUBKTNV-1" source="FH31mO6eBLQgAafDQbDE-9" target="FH31mO6eBLQgAafDQbDE-8">
          <mxGeometry relative="1" as="geometry" />
        </mxCell>
        <mxCell id="FH31mO6eBLQgAafDQbDE-22" style="edgeStyle=orthogonalEdgeStyle;rounded=0;orthogonalLoop=1;jettySize=auto;html=1;exitX=1;exitY=1;exitDx=0;exitDy=0;entryX=1;entryY=0.5;entryDx=0;entryDy=0;curved=1;" edge="1" parent="WIyWlLk6GJQsqaUBKTNV-1" source="FH31mO6eBLQgAafDQbDE-9" target="FH31mO6eBLQgAafDQbDE-4">
          <mxGeometry relative="1" as="geometry">
            <Array as="points">
              <mxPoint x="480" y="271" />
              <mxPoint x="480" y="610" />
            </Array>
          </mxGeometry>
        </mxCell>
        <mxCell id="FH31mO6eBLQgAafDQbDE-9" value="&lt;font style=&quot;font-size: 24px;&quot;&gt;B&lt;/font&gt;" style="ellipse;whiteSpace=wrap;html=1;" vertex="1" parent="WIyWlLk6GJQsqaUBKTNV-1">
          <mxGeometry x="370" y="220" width="80" height="60" as="geometry" />
        </mxCell>
        <mxCell id="FH31mO6eBLQgAafDQbDE-10" style="rounded=0;orthogonalLoop=1;jettySize=auto;html=1;exitX=1;exitY=1;exitDx=0;exitDy=0;entryX=0.388;entryY=0;entryDx=0;entryDy=0;entryPerimeter=0;strokeWidth=1;" edge="1" parent="WIyWlLk6GJQsqaUBKTNV-1" source="FH31mO6eBLQgAafDQbDE-0" target="FH31mO6eBLQgAafDQbDE-9">
          <mxGeometry relative="1" as="geometry" />
        </mxCell>
        <mxCell id="FH31mO6eBLQgAafDQbDE-21" style="edgeStyle=none;rounded=0;orthogonalLoop=1;jettySize=auto;html=1;exitX=0.5;exitY=0;exitDx=0;exitDy=0;" edge="1" parent="WIyWlLk6GJQsqaUBKTNV-1" source="FH31mO6eBLQgAafDQbDE-7">
          <mxGeometry relative="1" as="geometry">
            <mxPoint x="330" y="160" as="targetPoint" />
          </mxGeometry>
        </mxCell>
      </root>
    </mxGraphModel>
  </diagram>
</mxfile>
